<svg width="27" height="28" viewBox="0 0 27 28" fill="none" xmlns="http://www.w3.org/2000/svg">
<path d="M19.0586 17.6251C20.6703 15.865 21.6272 13.6039 21.7688 11.2216C21.9103 8.83932 21.2279 6.48088 19.836 4.54232C18.4441 2.60377 16.4275 1.20318 14.125 0.575765C11.8224 -0.0516554 9.37412 0.132305 7.19119 1.09675C5.00826 2.0612 3.22365 3.74739 2.13706 5.87217C1.05047 7.99695 0.728077 10.4309 1.22402 12.7653C1.71996 15.0997 3.00403 17.1923 4.8606 18.6919C6.71717 20.1914 9.03316 21.0064 11.4196 21.0001C13.672 21.0031 15.8635 20.2691 17.6597 18.9101L25.4076 26.7171C25.4931 26.8061 25.5956 26.8772 25.7089 26.9261C25.8222 26.9751 25.9442 27.0009 26.0676 27.0021C26.1913 27.0024 26.3138 26.9773 26.4273 26.9283C26.5409 26.8793 26.6431 26.8074 26.7276 26.7171C26.9016 26.5362 26.9987 26.295 26.9987 26.0441C26.9987 25.7931 26.9016 25.5519 26.7276 25.371L19.0586 17.6251ZM2.88565 10.5001C2.89848 8.81477 3.40996 7.17101 4.35561 5.776C5.30126 4.38098 6.63875 3.29715 8.19946 2.66114C9.76017 2.02513 11.4742 1.86542 13.1256 2.20213C14.7769 2.53884 16.2917 3.3569 17.4788 4.55319C18.6659 5.74948 19.4722 7.27044 19.7962 8.92433C20.1202 10.5782 19.9473 12.291 19.2993 13.8468C18.6512 15.4026 17.5571 16.7316 16.1549 17.6665C14.7526 18.6014 13.105 19.1002 11.4196 19.1C9.14819 19.0892 6.97384 18.1775 5.37386 16.5652C3.77388 14.9528 2.879 12.7715 2.88565 10.5001Z" fill="#E8E8E8"/>
</svg>
